<mxfile host="65bd71144e">
    <diagram id="t2SpmtJjuYzFgwexgJWb" name="Page-1">
        <mxGraphModel dx="645" dy="569" grid="1" gridSize="10" guides="1" tooltips="1" connect="1" arrows="1" fold="1" page="1" pageScale="1" pageWidth="827" pageHeight="1169" math="0" shadow="0">
            <root>
                <mxCell id="0"/>
                <mxCell id="1" parent="0"/>
                <mxCell id="2" value="" style="verticalLabelPosition=bottom;verticalAlign=top;html=1;shape=mxgraph.basic.rect;fillColor2=none;strokeWidth=1;size=20;indent=5;" parent="1" vertex="1">
                    <mxGeometry x="120" y="80" width="600" height="440" as="geometry"/>
                </mxCell>
                <mxCell id="3" value="" style="verticalLabelPosition=bottom;verticalAlign=top;html=1;shape=mxgraph.basic.rect;fillColor2=none;strokeWidth=1;size=20;indent=5;" parent="1" vertex="1">
                    <mxGeometry x="120" y="80" width="600" height="50" as="geometry"/>
                </mxCell>
                <mxCell id="4" value="Volume of a Sphere, With JS" style="text;html=1;align=center;verticalAlign=middle;resizable=0;points=[];autosize=1;strokeColor=none;fillColor=none;" parent="1" vertex="1">
                    <mxGeometry x="160" y="95" width="170" height="20" as="geometry"/>
                </mxCell>
                <mxCell id="5" value="" style="shape=image;verticalLabelPosition=bottom;labelBackgroundColor=#ffffff;verticalAlign=top;aspect=fixed;imageAspect=0;image=data:image/png,iVBORw0KGgoAAAANSUhEUgAAANEAAAC4CAIAAADyo54qAAAczklEQVR4nO2dWXQT15qoS6oqqTTPsjzhEY8YY4OxMUNMjIFAmAIBcoCcpM/pXvfxvvRLP/XDfbpr3bdet3v1yWlyQkiAhjAdHMAQE2ZjY2M8D3i2ZGueVaWqUvWDgDgkgAfVLkmuzytOlmPr/yV9tVVVe+//FzAMA/HwAETIdQI8yw7eOR7Q8M7xgIZ3jgc0vHM8oOGd4wEN7xwPaHjneEDDO8cDGt45HtDwzvGAhneOBzQI1wnEI5FIxGqz2ewOp9PlcnvcXq/P5w8Gg6EQToQJkqRommYYRiAQwDCMoohYJJZIMKlUqlDI1UqlRq3SajUGvc5oMAiF/FH9JgJ+XQkEQQzDjI1PTExOTU6Zpy0Wy8xsitGg1+v0Wq1GrVaplAq5XCaTSiSYWCRGUQSGYYFAwDAMTdMkSRFhIhTCA4Ggz+/3eLwut9vudNrtjlmrLdWUkp6ampmRtiIzIztrhUAg4Pq5cs+ydm58YnJw6MXgi5GR0bH0tNSszIzMjPT0tNRUU0pMxqdIJGKZmZ02Wyanpscnp6bNltyc7IK83IKVeVkrMpf++AnKcnSut3+gu6evp29AJpMWrsxfmZ+bl5MtFovZjksQxIvRsaHhkYGh4UAgWFpcuKq0uKSokO248cYycm50bLz92fOOzi6T0bCqtKS0pNCg13OVjM1u7+kd6O7pnbHaKsrLKteszsnO4ioZwCS/cyRJtrQ+bWlrJ0lybUV5RXmZXqfjOqlfsDscHZ1dTzs6URStXldZXbUWRVGuk2KXZHbO4XQ9ePT4weMnJcVFNevWFhbkc53RuxgYHH7c9rS3r39jzfqNG2p0Wg3XGbFFcjpntdru3HvQ2v5sc23Nxg3rdVot1xnNF4fT+eDRk3sPH1dVrqnbvNFoNHCdUexJNudcbs/t5p9b2zu2btn0waaNEgnGdUaLIRTCf77/oPnu/bVr1jTU12nUKq4ziiXJ4xzDMDeafrpxu7m+bkt93ZYEtW0uHp/v8t+vdzzr3FG/dUfDh0lzby9JnHva0dl4oyk3N2fntq0J9En6bmatdhRFGYa+fqt5ZGR0146GtRXlXCcVAxLeObvDeaXxutvt2b2jIc6vEhYEjhOWWVv2ivTo8DYwOHztRpNardq7a6del9gHVWI7d/9Ry6WrjTu2bW34sI7rXGKMecYqlUjUKsXcHzb9dOfGreb9e3Zt2lDNVWJLJ1Gd8/n95y9dDfj8+/fuzkhP4zqdGBMIhuwOV1bm7zyvqWnzpSvXZAr5of17FHI5+NyWTkI619PXf+7C5eqqyl07GrjOhRWmpmdUKoVCLnvbLzTeaGppbT98cF9pcRHIxGJC4jnXdLv53sOWI4f2J+LLPR98voDH68tIN73713r6+s+ev7S5trqhfiuYxGJFIjnHMMzpM+f9fv/Rw5+oVUl1y2ou45NmvU4jk0re+5tuj+fMuR/kcvmxo4cS6E5KwjjndLm/+e5sRlrqoQN7uc6FRdweXzCEp5kWMP1w/uKVKbPl8z8c0WrU7CUWQxJjFevE5NS//cdfykqLk1s4hmFcLo9WrVzQXx06sLestPjf/uMvE5NTLCUWWxJgnBsYHP6vU6cP7tuzfl0l17mwi9PlIUkqxbiYZS9P2tovXL76DyeOxf9Nyngf57p7+/79q5PHj36a9MLRNO10ebSahQ1yr1m/rvL40U///auT3b19sU0s5sT1ONfV0/v1t2f+8csTRQUruc6FdWx2p0Ag0OuWtISpf3DoLydPfXH8aFlpSawSiznxO8719g2cPPX9P335+XIQLhwmvV7/0tePFBWs/KcvPz956vvevoGYJMYGcerci5HRv35z+s9fHI//s5OY4HR7NBoVDMfg7SgsyP/zF8f/+s3pFyOjS380NohH52ZmZk+e+v740U+Xyf6UEE6EQrhWE7M7jiVFhcePfnry1PczM7OxeswYEnfOBUOhv313dmfDhxXlZVznAgiXy6ON9arMivKynQ0f/u27s8FQKLaPvHTizrlT359bVVK8qbaG60QAEQiGKIpW/Xr9SEzYVFuzqqT41PfnYv7ISyS+nLt45RqGYbt3JufM/e/idHk0i70/8l5272zAMOzilWssPf7iiCPnHrW0Do+MHjt8kOtEwOH1BQQCwTvWjyydY4cPDo+MPmppZS/EQokX56amzWcvXDp66ACCLKOyPS73gme6FgqCIEcPHTh74dLUtJnVQPMnXpw798Plw5/sy8xI5zoRcLg9XhGKSuexfmSJZGakH/5k37kfLrMdaJ7EhXNXrv1oNBpqa9ZznQg4GIZxurya2N0feTe1NeuNRsOVaz+CCfduuHeuf2Co/VnXwb0fc50IUHCcUMilmFgELOLBvR+3P+vqHxgCFvFtcO/c5Ws/7t+zKwm2oy4IiQQz6IFu35JIsP17ProcB0Mdx841Xm9KT09bs3oVt2ksE9asLktPT2u83sRtGlw6Z7ZY7tx/uOej7RzmsNzY89H2O/cfmi0zHObApXONN2/v2r5NpWT3ZkF8QAWc1omxiaEpF04GnVbLyOi0JUCDz0OlVO7avq3x5i3woV/DmXNdPb0ul7tuy0auEgALItMa05QoRPjt3ohCgcERighz4BwEQXVbNrpc7q6eXk6iQxw6d+v2ne31ybb5/p0wFB1hUKlOK0dFmFKt1ivBXbS+wfb6ulu373AVnRvnnrS1YxhWXrasLh1oIkwJxGJMAEGwRKNTyWHOUikvW4Vh2JO2dk6ic+Nc8937Wz/YzElozmDCoTAkEovjZBvq1g82N9+9z0loDpxrfdqhUiiKCpN/xfmvCIfDDIJh3A1uv6aocKVKoWh92gE+NAfO3Xv4aPOmDeDjcgwRDgsQTMT9TfjXbN604d7DR+Djgn4JevsHIEiQrKVG3g6DE2QEFWFxpBxUWlwEQYLeftC7dUC/Bg9bWmurqwAHjQMEmCG9IEPDet+TBVJbXfUQ+NI6oM7ZbPbR0fGa9etABuV5BzXr142OjttsdpBBgTrX+rQj6bfjv0E8b1mPsn5dJeArCaDOtXV0rqtcAzIi59gdLp8/wHUW72Jd5Zq2jk6QEcE51z8wpFLI09NSgUXknHCY9PoC86kkxyHpaakqhRzkujpwznV2dZevXi5bVqNEa97Ef9vg8tVlnV3dwMKBezmed/euLovfwi0xJxTCcZxIiBY2q8tKnneDm/IH5NzA4HCKQa/VJG3ftN/idIPb7rBEtBpNikE/MDgMJhwg5/oGBouLl0XxkSj+QJCmaZUyYWrpFxcX9g0MgokFyLn+waHlUNLrNS6XN+YlSFilqGBl/yCgywgQzjmdrmAwtHz2rnp9fqFQIJdLuU5kAWRmpAeDIafTBSAWCOeGR0bz8nIABIoTnC5PopzJzSUvL2cYSMk6EM6Njo3nLZtm8y63VywWSRNw62Redtbo2DiAQCCKg4xNTG6Mp55okQgTidB0JBKJMJFfYCKRCMMwr/6ZA/RqDustM1mCl1+QQCAI4QSGiS2zNqEgilAofPkvoTD6XSgUCmChUCiEY1JYM1ZkZ6148PgJgECsO4fjhN3hBNkGLhJhKDr6RVMUTdM0RdM0HaFfEoEgCI6+58K5CAQCAQzDiEAgfOXLSyAImvs9igCCXgnIvPyCPF6fVIKplHKGgV55GzWZIUlyruJ09DsdgWEhLIRhWAi/RIggMALDMIJE/wPY65aRnmZ3OHGCwMTsLn9h3blpszmTtfkukqRIkiRJiqQokqQoiiIpOhKJIEj0LYMRBIZhWCQSIXPeVJbaFFEU5fMFsrPS0YWUlqLpCB355ZCgKJogwoFXB0z0uaAIgqAIiiAoiqAogiIoSwNkZlrq9LQ5L5fdk2/WnbPMzKamvqdd2jwJh0kiHA6HyTBJhsMkSVIIDKMogqIoiiKYWIygCIrAMMCxYS5Ol1ejVi5IOAiCYFgIw0II/f3/yzAMRdGvjyh/IEiSFElSQoEAFaEiFBWJULEIFYnQmDzr1FSTZWY24Z2bmbWaUoyL+1siHCaIMEGEcSJMEGEEgcUikUiEymVSkQYVoWj8NFYjwmGfP5CTFeP7QQKBIDq2Qb9eJ0BRdPTAC4dJvz9AhEkYFopFIrFYhIlFYrF4cQOhKcU4M2uNTepvh3XnZm32BfXHCOEEjuMhnMBxQigUYmIxhonkcplYJBIK48Ww3+JyebUaFbDpfASBEQSee3VMkhROhAmCcLq9OE6IRCiGiSWYWIJhCDLfIdBoMDzvYb2NDuvOORxO/fsKEFEUFQzigVAoFMIRGJFIMKVCnmLQx9Vl3TsIhXCcIEwpeg5ziA6Hilc3ogkiHMJxvz9otTlFKCKRSmQS7L3Fr/R6rcPhZDtVdp1jGMbpcr1tap+iab8/GAgEcYKQSaUyqdSo13J1NrYUnG5vvK0fEYtFYrEomhSOE4FgyOZw0TQtl0llMunbbh9qNRqny8UwDKsnLew65/Z41SrVb59AMBjy+gI+f0ChkKlVSpksDlY1UkGH3eMJhilEnpmpk8z7NY//6XwME2OYWKdVkyTlDwTsdhcDMUqFTKmQv3GECwQCtUrl9rB7CLHrnM/nUyp/1fnA5w+4PT4mwqiU8hSjLn4uAiBEqktBhNMWOyrGFpKUy+WJYQsbVkFRRKNWadQqHCc8Pv/o+LRKqVCr5Cj6y2WzUqnw+XwJ7Jw/EJDJXhaiD4Zwp8vDMIxGrZTL4nL+m6EIEhLJF1Dewev1C4XCOH06byc68um1apfbOzZh1mpUWs3LjyOZTOYPsLuBg13ngsFQtC64w+n2eHx6vVapYLEXwlIJEziDSBdS3sHp9hgNi2nxGw/AMKzXaTRqpc3umpqeNRg0mFgslUqCQXbbNbHrHE4QErHYanOSJJmVlQ7H384ABvfanEEKRmAoQpPhsECkFc83ycSdzp8LDMOmFL3H6zebrakmg0QsxgmC1YjsOkeGwwzDhEkyIy2F1UCLgwm5JmZDWIoxTYJADOGcnPGJxLJ5fLI6XR6X2xuJRFTK2Pfp4gSVUi4UCmZtDhRFyXCY1VjsDjwURZMkZQRbIHy+MITL5iVlaqPk5YHHMBCKid77yRoIBB1OdyQSgSDI4/UFAkGWEwWEQi6TYBhNRyiK3QKg7I5z4XBYKBSOT8ZL1x8IglbmvVrJF/K7KVgmf3WRShFBWjh3ScXQi3ktJjPP2GKdI5eQJBk9nNiD9evWvoHBo58eYDXK4qAJkoZgEfpqpMcJAkI0cwon/WLnrwkEgnM9SzMZZIl23fo2evr6h0ZGqirYrbXA7merVqMJhkKz7E8bL4Jfr75kcDwcQUTSeVyzymRSnVYdXXOn06qTRjgIgrq6ezVq1meN2X10BIFXZGZcuHSV1SiLA8FEMEMGfQQToUIepzVAQUKhcH5FbbQaVV5OZl5OZqLcDZ4P7c+eD4+OpZlM818TsDjYdQ4ViVJTjAaD/v//5STbd30WjERlUotI18zwpM0PK4wKERz2my1OPzcV9DnmUUvr+YtXjh46QNM0KmK3oDu7zmFicYggPv1kX272iv/zf/8fJ9Vr3w4s1Zlyc7NWZqUa5CJMl5qXm5mTplMso/6xEARBXp/vm+/PPXrS9r/+/EV+bk4o0demv76pvbOhPjcn++bt5gePn2yr27KqtJjVuDzzwe8PNN+999PP97fX1x0/cih6Gvd66og92HVOLpMFXk3eFeTnFeTnPe3o/OnO3cabtzfWVFVXrV1WXanjh/GJyUctra3tzzZvqP6Xf/7fBv0vK/8CgYBcxu78JLtvuUKh8Hp9c3+ytqJ8bUV5/8Bg69OO85eurl1TXlFeVlqy3Epac4PD4Xz2vKu9s4um6arKin/9l39WKN6cR/F6fb/9YWxh1zm1Sun2eH67BrCosKCosGDfx7ued/fcvf/wb9+dXVVcWFxUWFxYIJfH8SKAxGRsfKKvf7Cnf8Dv95eVluz/+KOV+Xm/+5sMw7g9HrWK3a5/7DonEAiiS0912t+Z/lIqFZtqazbV1rjdnv7BoZ7+gYtXG9Uq1cq8nLzcnNycLLYH+SRmatr8YmR0aGR0+MWoQa8rWpm//+OP8vNy3/1X0UXdbC9qZP10SqfT2u3O33XuNWq1qmb9umg99dGx8ZHR8Za2p2cvXJRIJNmZGZkZGZkZaRnpaSKWr+ETGrvDMTVlnpianpycGpucNBoMuVkrKsvLDu3fo1bN9yai3e7U6VifHGfduRSD3mqzFRbkz/P3c7KzcrKz6iEIgiCzZWZq2jw5Nd35vGvKbFGplGkmk8mUYkoxphgNKUZDIm6eiAler2/WapuxWmdmZs0zsxbLjEwmS09PzUxP+3DrlhUZ6bJFfURYbbYUA+s7iVh3zpRitMzMLu5v01JNaamm1+X9Z2atlpnZ2Vnrs65uq9VmtdlVSqVerzPotDqtVqfVaLUajVqdTGeENE07XW6Xy+V0uRwOl83ptNsdNrtDLBYZDQaT0WBKSakoLzOZUmJyHjIza001sb7qjHXnUk0p7TEqBW9KMb6xPdtmdzgcDrvD5XQ6JyYnHS63y+3GcUKtUqpUKrVSoVQqlQq5Qi6XK+RymUwul8mk0rnL/zknGAz6A0F/IOD3+30+v8/n9/p8bq/X4/F5vJ5oRWKNRq3TaLQazerSYp1WZ9BrpVJWJnktlpnKNavZeOS5sO5cenrapNnC0oMb9DqD/s2l4eFw2O3xerxer9fn9fp8fp/ZMuP1B/x+fyAQDASDAgiSSiVRMEyMYZhELBaLRS9BoyAvi9Qg0SIncwrpzDnFfl26KfKq5g1N0xRNRUunkBQVJkkyHH5VkIAIEQSOEzgeCobwUDAUCAalUqlcJpXJZEq5TC6XKxTyjPS0kuJClVKpUiqVYNeETpot6WmsVzNi3TlMLNbrtFPTZmClmUQikdGgN779vCQcDgeDoWAohON4CMdxnHhJOOz3B8iXUBRFkTQVoWgqQr+sHPaqyNLrh3pdukkoFCJCoQCGYRhGYRhBEBhFRAgiQlFUJBKLRAq5AhOLxFHFMUwiwaQSiVQqjZ+db1PTZr1Oi2Gs9yQDMQ2QvSJzbHwCZDmwdxMdztRxtguac8bGJ7JXZAIIBGJTTE521gsgBRx5lsKLsfEcIOVQQTiXn5vz4gWIQrU8S+HFi9F8lquARQHhnFarkUolk1PTAGLxLI7JqWmpVKLVgmgaA2jDKcj2AzyLAGQDD0DOFRcW9PWB7sHNM3/6+gaKCwvAxALkXGFB/qzN7nSBaHnBs1CcLteszT7/+cklAq6Yw+pVJc+7wDXP45k/z7t6V68C13ISnHPlZas6n3cBC8czfzqfd5WXrQIWDpxzRYUrPT7/NGvzYDyLY9ps8fj8RYXgOgACLZS0rqK8rf0ZyIg876Wt/dm6inKQEYE6V7W24klbO8iIPO/lSVt71doKkBGBOmcw6HNysh4/aQMZlOcdPH7SlpOTZWB/neZcQBchrK2uetjSCjgoz9t42NJaW10FOCho50qKCiGI6enrBxyX57f09PVDEFNSBLpnPQfFVjfXbrh3/xH4uDxvcO/+o821G8DH5cC5qrUVHp+vf4CffuWS/oEhj88H+OohCjdFpbdu2dT88z1OQvNEaf753tYtmzgJzY1z69dV4jje2dXNSXSezq5uHMdfb6gDDGfF87fV1928fYer6Mucm7fvbKuv4yo6Z86VlZZoNOo7dx9wlcCy5c7dBxqNekENTmMLl01Cdm3f1njzlsfr5TCH5YbH6228eWvX9noOc+DSubRUU92m2qs/3uQwh+XG1R9v1m2qTUtN5TAHjpsh7drZMD1tfsavcQLCs+fd09PmXTsbuE2D+wZc+3Z/dOnqj6EQznUiSU4ohF+62rhv90dcJxIHzhUVrqxcU3bhyt+5TiTJuXDl75VrykCuk3sb3DsHQdDe3R9ZrbaHj59wnUjS8vDxE6vVtjcOBjkoTpyDIOjwJ/vO/XCZ3wPLBpNT0+d+uHz4k31cJ/KSeHEuIz3tyMH9Z85fpCiK61ySCoqizpy/eOTg/vipFxMvzkEQtKG6Kj835/S5C1wnklScPnchPzdnA/BFcu8gjpyDIOjA3t04jl+73sR1IknCtetNOI4f2Lub60R+RXw5B0HQic8Od/f23X/4mOtEEp77Dx939/ad+Oww14m8Sdw5J5VI/viHI9ebfuro5G8UL56Ozq7rTT/98Q9HpBJ2GyktgrhzDoIgkynlyxOffXvmv3v7+RIni6G3f+DbM//95YnPTOwXpF4E8egcBEF5uTl/+vzYV19/OzA4zHUuCcbA4PBXX3/7p8+P5QEpJrcI4tQ5CIJKigu/PPHZf578hi8iNn/6B4f+8+Q3X574rKQY9M6a+SOYV19m7uju7fvq62//9MdjHK73ShS6enr/+rfTf/7i+KqSuG5VGu/OQRA0MDj8X6dOH9y3h6u11AnBk7b2C5ev/sOJY8BKei2aBHAOgqCJyamvv/1+44bq+rotXOcSj9y+c/fBo5Yvjn+2IjOD61zeT2I4B0GQ0+X+5ruzGWmphw7s5TqX+OL8xStTZsvnfzii1ai5zmVeJIxzEAQxDHP6zHm/33/08Cfz79WXxLg9njPnfpDL5ceOHoqf3ibvJZGci9J0u/new5Yjh/aXFi/r7tY9ff1nz1/aXFvdUL+V61wWRuI5B0FQT1//uQuXq6sqd+3geJk1VzTeaGppbT98cF8iHngJ6RwEQT6///ylqwGff//e3fGzSgcAU9PmS1euyRTyQ/v3KORyrtNZDInqXJT7j1ouXW3csW1rw4ec7RAGSdNPd27cat6/Z9emDdVc57J4Ets5CILsDueVxutut2f3job4vzW1aAYGh6/daFKrVXt37dSz376cVRLeuShPOzobbzTl5ubs3LZVp03st+QNHE7n9VvNIyOju3Y0rAVb+JclksQ5CIIYhrnR9NON2831dVvq67ZIJBjXGS2VUAi/fefu7Tt3d9Rv3dHwYQLdDXk3yeNcFJfbc7v559b2jq1bNn2waWOCmhcK4T/ff9B8935VZUX91g80ydVqNtmci2K12u7ce9Da/mxzbc3GDesT6NPW4XQ+ePTk3sPHVZVr6jZvNBoNXGcUe5LTuSgOp+vBo8cPHj8pKS6qWbc2zq8wBgaHH7c97e3r31izfuOGGh2QtpackMzORSFJsqX1aUtbO0mSayvKK8rL9Dod10n9gt3h6OjsetrRiaJo9brK6qq1KIpynRS7JL9zrxkdG29/9ryjs8tkNKwqLSktKTTogfZFmIvNbu/pHeju6Z2x2irKyyrXrAbTlzweWEbOvaa3f6C7p6+nb0AmkxauzF+Zn5uXky0Wi9mOSxDEi9GxoeGRgaHhQCBYWly4qrQYfKl8zlmOzr1mfGJycOjF4IuRkdGx9LTUrMyMzIz09LTUVFOKUBiDVfuRSMQyMztttkxOTY9PTk2bLbk52QV5uQUr87JWZC798ROUZe3caxiGGRufmJicmpwyT1sslpnZFKNBr9fptVqNWq1SKRVyuUwmlUgwsUiMoggMwwKBgGEYmqZJkiLCRCiEBwJBn9/v8Xhdbrfd6bTbHbNWW6opJT01NTMjbUVmRnbWiqS5x7YUeOd+h0gkYrXZbHaH0+lyuT1ur9fn8weDwVAIJ8IESVI0TTMMIxAIYBhGUUQsEkskmFQqVSjkaqVSo1ZptRqDXmc0GGIyXiYZvHM8oOGPQh7Q8M7xgIZ3jgc0vHM8oOGd4wEN7xwPaHjneEDDO8cDGt45HtDwzvGAhneOBzS8czyg4Z3jAQ3vHA9oeOd4QMM7xwMa3jke0PDO8YCGd44HNLxzPKDhneMBDe8cD2h453hAwzvHA5r/AXRC9YjlF1QxAAAAAElFTkSuQmCC;" parent="1" vertex="1">
                    <mxGeometry x="140" y="140" width="147.67" height="130" as="geometry"/>
                </mxCell>
                <mxCell id="6" value="&lt;font style=&quot;font-size: 21px&quot;&gt;&lt;i&gt;V = &lt;/i&gt;&lt;u&gt;3&lt;/u&gt;&lt;i&gt;&amp;nbsp;&lt;/i&gt;&lt;span style=&quot;font-style: italic ; color: rgb(26 , 26 , 26) ; font-family: &amp;#34;georgia&amp;#34; , serif&quot;&gt;&lt;font style=&quot;line-height: 1.2 ; font-size: 21px&quot;&gt;π r&lt;/font&gt;&lt;/span&gt;&lt;span style=&quot;background-color: rgb(255 , 255 , 255)&quot;&gt;&lt;b style=&quot;font-style: italic ; color: rgb(32 , 33 , 36) ; font-family: &amp;#34;arial&amp;#34; , sans-serif&quot;&gt;³&lt;/b&gt;&lt;br&gt;&lt;div style=&quot;text-align: left&quot;&gt;&lt;font color=&quot;#202124&quot; face=&quot;arial, sans-serif&quot; style=&quot;font-size: 21px&quot;&gt;&lt;b style=&quot;font-style: italic&quot;&gt;&amp;nbsp; &amp;nbsp; &amp;nbsp;&amp;nbsp;&lt;/b&gt;&lt;font style=&quot;font-size: 21px&quot;&gt;4&lt;/font&gt;&lt;/font&gt;&lt;/div&gt;&lt;/span&gt;&lt;/font&gt;" style="text;html=1;align=center;verticalAlign=middle;resizable=0;points=[];autosize=1;strokeColor=none;fillColor=none;" parent="1" vertex="1">
                    <mxGeometry x="410" y="185" width="110" height="40" as="geometry"/>
                </mxCell>
                <mxCell id="8" value="" style="line;strokeWidth=1;html=1;perimeter=backbonePerimeter;points=[];outlineConnect=0;labelBackgroundColor=none;fontSize=21;opacity=60;" parent="1" vertex="1">
                    <mxGeometry x="133.84" y="320" width="160" height="10" as="geometry"/>
                </mxCell>
                <mxCell id="9" value="&lt;span style=&quot;font-size: 13px&quot;&gt;Radius:&lt;/span&gt;" style="text;html=1;align=center;verticalAlign=middle;resizable=0;points=[];autosize=1;strokeColor=none;fillColor=none;fontSize=21;" parent="1" vertex="1">
                    <mxGeometry x="125" y="280" width="60" height="30" as="geometry"/>
                </mxCell>
                <mxCell id="12" value="&lt;span style=&quot;font-size: 13px ; line-height: 0.3&quot;&gt;&lt;font color=&quot;#b3b3b3&quot;&gt;3&lt;/font&gt;&lt;/span&gt;" style="text;html=1;align=center;verticalAlign=middle;resizable=0;points=[];autosize=1;strokeColor=none;fillColor=none;fontSize=21;opacity=60;" parent="1" vertex="1">
                    <mxGeometry x="132.00000000000003" y="299" width="20" height="30" as="geometry"/>
                </mxCell>
                <mxCell id="13" value="&lt;font color=&quot;#000000&quot;&gt;Calculate&lt;/font&gt;" style="rounded=1;whiteSpace=wrap;html=1;labelBackgroundColor=none;fontSize=13;fontColor=#B3B3B3;strokeWidth=2;opacity=60;" parent="1" vertex="1">
                    <mxGeometry x="140" y="360" width="70" height="20" as="geometry"/>
                </mxCell>
                <mxCell id="14" value="The volume is: 113.09" style="text;html=1;align=center;verticalAlign=middle;resizable=0;points=[];autosize=1;strokeColor=none;fillColor=none;" vertex="1" parent="1">
                    <mxGeometry x="133.84" y="400" width="130" height="20" as="geometry"/>
                </mxCell>
            </root>
        </mxGraphModel>
    </diagram>
</mxfile>